<?xml version="1.0" encoding="UTF-8" standalone="no"?>
<svg
   xmlns:dc="http://purl.org/dc/elements/1.1/"
   xmlns:cc="http://creativecommons.org/ns#"
   xmlns:rdf="http://www.w3.org/1999/02/22-rdf-syntax-ns#"
   xmlns:svg="http://www.w3.org/2000/svg"
   xmlns="http://www.w3.org/2000/svg"
   xmlns:sodipodi="http://sodipodi.sourceforge.net/DTD/sodipodi-0.dtd"
   xmlns:inkscape="http://www.inkscape.org/namespaces/inkscape"
   inkscape:export-ydpi="96"
   inkscape:export-xdpi="96"
   inkscape:export-filename="C:\xampp\htdocs\img\logo.png"
   width="352.48563mm"
   height="96.65023mm"
   viewBox="0 0 352.48563 96.650229"
   version="1.1"
   id="svg8"
   inkscape:version="1.0 (4035a4fb49, 2020-05-01)"
   sodipodi:docname="logo.svg">
  <defs
     id="defs2" />
  <sodipodi:namedview
     id="base"
     pagecolor="#ffffff"
     bordercolor="#666666"
     borderopacity="0"
     inkscape:pageopacity="1"
     inkscape:pageshadow="2"
     inkscape:zoom="0.24837522"
     inkscape:cx="897.98382"
     inkscape:cy="197.45701"
     inkscape:document-units="mm"
     inkscape:current-layer="layer1"
     inkscape:document-rotation="0"
     showgrid="false"
     inkscape:pagecheckerboard="false"
     fit-margin-top="1.5"
     fit-margin-left="1.5"
     fit-margin-right="1.5"
     fit-margin-bottom="1.5"
     lock-margins="false"
     width="351.48563mm"
     inkscape:window-width="1274"
     inkscape:window-height="729"
     inkscape:window-x="26"
     inkscape:window-y="0"
     inkscape:window-maximized="0" />
  <metadata
     id="metadata5">
    <rdf:RDF>
      <cc:Work
         rdf:about="">
        <dc:format>image/svg+xml</dc:format>
        <dc:type
           rdf:resource="http://purl.org/dc/dcmitype/StillImage" />
        <dc:title></dc:title>
      </cc:Work>
    </rdf:RDF>
  </metadata>
  <g
     inkscape:label="Layer 1"
     inkscape:groupmode="layer"
     id="layer1"
     transform="translate(111.55112,-105.01241)">
    <g
       id="g858"
       transform="matrix(0.08094925,0,0,0.07220316,182.20248,99.321691)">
      <path
         id="path852"
         d="m -3123.4071,1414.238 c 1434.708,3.3406 1348.7284,6.5367 1367.6631,-4.3904 35.7262,-20.6201 -5.9033,-72.0691 35.6169,-71.9723 l 2384.08966,5.551 c 161.07782,0.3751 163.86351,-256.1686 2.8655,-256.5434 l -4137.06416,-9.633 c -45.6897,-0.1075 -86.3788,8.7013 -114.5771,24.8024 -166.5411,95.1044 172.4324,311.5129 461.4061,312.1857 z"
         style="stroke-width:2.21909;fill:#060f0d;fill-opacity:1" />
      <path
         style="stroke-width:0.475327;fill:#060f0d;fill-opacity:1"
         d="m -2755.4049,211.59781 c -6.8526,0 -17.053,9.73295 -17.053,16.27191 v 140.95617 c 0,4.09992 -9.3421,4.10495 -9.3421,0 V 227.86972 c 0,-6.53896 -10.1992,-16.27191 -17.0528,-16.27191 -6.8524,0 -17.0528,9.73295 -17.0528,16.27191 v 140.95617 c 0,4.09992 -9.3428,4.10495 -9.3428,0 V 227.86972 c 0,-6.53896 -10.2003,-16.27191 -17.0522,-16.27191 -6.0361,0 -14.6688,7.55112 -16.6398,13.8194 h -0.4141 v 198.01826 c 0,17.60735 23.1712,28.90547 23.1712,44.22287 v 420.78442 c 0,25.39672 74.6579,25.3833 74.6579,0 V 467.65877 c 0,-15.31547 23.1726,-26.61691 23.1726,-44.22288 V 227.86972 c 0,-6.53896 -10.1985,-16.27191 -17.0521,-16.27191 z"
         id="path913" />
      <g
         style="fill:#ffffff;fill-opacity:1"
         id="g1086"
         transform="matrix(1.867645,0,0,1.3437201,509.99995,-1810.3406)">
        <path
           id="path1082"
           d="m -1291.7545,1481.4866 c -41.4659,0 -69.7756,106.9144 -28.7467,171.7969 3.0026,4.8851 10.7945,18.9123 10.7945,25.0715 v 343.636 c 0,20.2408 35.9033,20.2301 35.9033,0 v -343.636 c 0,-6.1596 7.7919,-20.1864 10.7822,-25.052 41.0535,-64.921 12.7152,-171.8164 -28.7333,-171.8164 z"
           style="stroke-width:0.294274;fill:#060f0d;fill-opacity:1" />
      </g>
    </g>
    <text
       xml:space="preserve"
       style="font-style:normal;font-variant:normal;font-weight:bold;font-stretch:normal;font-size:50.8px;line-height:1.25;font-family:'Tempus Sans ITC';-inkscape-font-specification:'Tempus Sans ITC Bold';letter-spacing:0px;word-spacing:0px;stroke-width:0.264583;fill:#060f0d;fill-opacity:1;"
       x="-108.54786"
       y="164.04166"
       id="text874"><tspan
         sodipodi:role="line"
         id="tspan872"
         x="-108.54786"
         y="164.04166"
         style="font-style:normal;font-variant:normal;font-weight:bold;font-stretch:normal;font-size:50.8px;font-family:'Tempus Sans ITC';-inkscape-font-specification:'Tempus Sans ITC Bold';stroke-width:0.264583;fill:#060f0d;fill-opacity:1;">SH SH   F          D </tspan></text>
    <g
       transform="matrix(0.96008464,0,0,0.96237224,14.717645,61.316938)"
       id="g3329">
      <path
         style="fill:#060f0d;fill-opacity:1"
         d="m 183.73621,54.669685 c -17.41,0 -31.56,14.15 -31.56,31.56 0,17.419995 14.15,31.529995 31.56,31.529995 17.41001,0 31.53001,-14.11 31.53001,-31.529995 0,-17.41 -14.12,-31.56 -31.53001,-31.56 z m 0.87,7.78 c 13.12001,0 23.78001,10.66 23.78001,23.78 0,13.12 -10.66,23.749995 -23.78001,23.749995 -13.12,0 -23.75,-10.629995 -23.75,-23.749995 0,-13.12 10.63,-23.78 23.75,-23.78 z"
         id="path3247" />
      <path
         style="fill:#060f0d;fill-opacity:1"
         d="m 184.59621,64.309685 c -12.07,0 -21.9,9.82 -21.9,21.9 0,12.08 9.83,21.919995 21.9,21.919995 12.08001,0 21.92001,-9.839995 21.92001,-21.919995 0,-12.08 -9.84,-21.9 -21.92001,-21.9 z"
         id="path3251" />
      <path
         style="fill:#060f0d;fill-opacity:1"
         id="path1127"
         d="m 112.47858,53.558806 c -17.409994,0 -31.559994,14.15 -31.559994,31.56 0,17.420004 14.15,31.530004 31.559994,31.530004 17.41,0 31.53,-14.11 31.53,-31.530004 0,-17.41 -14.12,-31.56 -31.53,-31.56 z m 0.87,7.78 c 13.12,0 23.78,10.66 23.78,23.78 0,13.120004 -10.66,23.750004 -23.78,23.750004 -13.11999,0 -23.749994,-10.63 -23.749994,-23.750004 0,-13.12 10.630004,-23.78 23.749994,-23.78 z" />
      <path
         style="fill:#060f0d;fill-opacity:1"
         id="path1129"
         d="m 113.33858,63.198806 c -12.06999,0 -21.899994,9.82 -21.899994,21.9 0,12.080004 9.830004,21.920004 21.899994,21.920004 12.08,0 21.92,-9.84 21.92,-21.920004 0,-12.08 -9.84,-21.9 -21.92,-21.9 z" />
    </g>
  </g>
</svg>
