<svg height='100px' width='100px'  fill="#ffffff" xmlns="http://www.w3.org/2000/svg" xmlns:xlink="http://www.w3.org/1999/xlink" version="1.1" x="0px" y="0px" viewBox="0 0 48 48" enable-background="new 0 0 48 48" xml:space="preserve"><g><path d="M33.626,3.302c-5.517,0-10.135,3.91-11.236,9.104l-2.253,0.345v-3.49c0-0.316-0.149-0.613-0.403-0.802   S19.152,8.21,18.85,8.303l-13.375,4c-0.423,0.126-0.713,0.516-0.713,0.958v27.125c0,0.313,0.146,0.607,0.396,0.797   c0.176,0.133,0.388,0.203,0.604,0.203c0.09,0,0.181-0.013,0.27-0.037l8.355-2.343v4.254c0,0.038,0.02,0.071,0.024,0.108   c0.009,0.083,0.024,0.162,0.054,0.241c0.02,0.053,0.045,0.1,0.074,0.149c0.041,0.069,0.088,0.13,0.146,0.189   c0.023,0.023,0.034,0.057,0.06,0.078c0.027,0.022,0.061,0.032,0.089,0.052c0.022,0.015,0.036,0.038,0.06,0.052   c0.033,0.019,0.068,0.027,0.102,0.041c0.029,0.013,0.057,0.026,0.087,0.036c0.1,0.031,0.201,0.053,0.302,0.053h0h0   c0.059,0,0.118-0.005,0.176-0.016l15.122-2.705l9.13,3.104c0.105,0.036,0.214,0.054,0.322,0.054c0.206,0,0.41-0.063,0.582-0.188   c0.263-0.188,0.418-0.49,0.418-0.813V24.287l2.252-3.446c0.038-0.058,0.045-0.066,0.07-0.131c1.081-1.792,1.653-3.839,1.653-5.917   C45.112,8.456,39.96,3.302,33.626,3.302z M22.153,14.465c-0.003,0.109-0.017,0.217-0.017,0.327c0,2.077,0.572,4.124,1.639,5.888   c0.023,0.057,0.052,0.111,0.086,0.163l5.9,9.026v9.804l-12.457,2.229l2.702-4.773c0.012-0.021,0.012-0.045,0.022-0.067   c0.035-0.073,0.06-0.15,0.076-0.232c0.008-0.044,0.019-0.085,0.021-0.129c0.001-0.021,0.011-0.041,0.011-0.063V14.773   L22.153,14.465z M6.762,14.005l11.375-3.402v25.274L6.762,39.066V14.005z M17.072,38.253l-0.686,1.211v-1.019L17.072,38.253z    M39.137,42.301l-7.375-2.507v-6.865l1.027,1.571c0.185,0.283,0.499,0.453,0.837,0.453s0.652-0.17,0.837-0.453l4.674-7.152V42.301z    M41.752,19.667c-0.03,0.048-0.057,0.096-0.08,0.145l-8.046,12.313l-8.054-12.319c-0.019-0.037-0.04-0.078-0.068-0.129   c-0.895-1.482-1.367-3.171-1.367-4.884c0-5.233,4.257-9.49,9.489-9.49c5.23,0,9.486,4.257,9.486,9.49   C43.112,16.506,42.64,18.195,41.752,19.667z"></path><path d="M33.624,8.127c-3.412,0-6.188,2.776-6.188,6.188s2.775,6.188,6.188,6.188s6.188-2.776,6.188-6.188   S37.036,8.127,33.624,8.127z M33.624,18.502c-2.309,0-4.188-1.878-4.188-4.188s1.879-4.188,4.188-4.188s4.188,1.878,4.188,4.188   S35.933,18.502,33.624,18.502z"></path></g></svg>