<svg xmlns="http://www.w3.org/2000/svg" viewBox="0 0 443 557.375" x="0px" y="0px">
<path fill="#ffffff" d="M443,354a45.35,45.35,0,0,1-8.56,25.77l0,.08-.38.51v-.9l-.91,1.28c-.31.44-.64.89-1,1.32l-.11.14V383c-7.64,10.21-15.86,20.11-24.45,29.5-8.87,9.58-16.87,17-24.15,22.41h-.85l-.13.1c-.46.35-.93.67-1.39,1l-1.31.91h.87c-8.86,6.07-16.65,9-23.72,9h-.33q-21.54-.69-45.87-9h1.55l-2.84-1c-.76-.26-1.51-.54-2.28-.81l-.51-.19H305.1q-31.34-11.66-66.72-35.5c-32.8-22.13-67.88-51.91-104.27-88.49C87.55,264.11,33.73,200.65,11,139v-1.35l-.18-.59c-.29-.8-.57-1.6-.85-2.41l-1-2.89v1.56C3.68,117.61.48,102.07,0,87v-.32c0-7,3-14.84,9-23.77v.87l.91-1.33c.33-.48.66-.94,1-1.42L11,60.9v-.85q8.24-11.31,22.79-24.89C45.41,24.29,57,15.21,62.52,11h.83l.13-.1.84-.63L66,9h-.81l.52-.39A43.46,43.46,0,0,1,91.23,0l1.19,0a34.53,34.53,0,0,1,23.19,9h-.68l.88.86c.34.33.67.65,1,1L117,11h.67c.6.63,1.16,1.28,1.7,2l.36.48c4.69,6.66,51.5,77.95,57.57,87.68l.29.45.25.53a43.44,43.44,0,0,1-2.61,42c-3.25,6.1-8.88,16.39-14,25.36l-.89,1.61a11.25,11.25,0,0,0,.9,12.61,607,607,0,0,0,47.2,52.55l.12.11a627.34,627.34,0,0,0,49,45,16.54,16.54,0,0,0,18.91,1.53c9-5.17,18.81-10.64,23.54-13.18a43.07,43.07,0,0,1,41.43-2.61l.87.47c9.29,5.61,81.2,53.86,87.16,58l.45.33q1.08.84,2.07,1.77v.68l.16.14c.33.32.66.64,1,1l.86.88v-.69a34.12,34.12,0,0,1,9,20.93v.1A29.91,29.91,0,0,1,443,354Z"/>
</svg>